<?xml version="1.0" encoding="UTF-8" standalone="no"?>
<svg
   xmlns:dc="http://purl.org/dc/elements/1.1/"
   xmlns:cc="http://creativecommons.org/ns#"
   xmlns:rdf="http://www.w3.org/1999/02/22-rdf-syntax-ns#"
   xmlns="http://www.w3.org/2000/svg"
   viewBox="0 0 768.66669 289.46667"
   height="289.46667"
   width="768.66669"
   xml:space="preserve"
   id="svg2"
   version="1.1"><metadata
     id="metadata8"><rdf:RDF><cc:Work
         rdf:about=""><dc:format>image/svg+xml</dc:format><dc:type
           rdf:resource="http://purl.org/dc/dcmitype/StillImage" /></cc:Work></rdf:RDF></metadata><defs
     id="defs6" /><g
     transform="matrix(1.3333333,0,0,-1.3333333,0,289.46667)"
     id="g10"><g
       transform="scale(0.1)"
       id="g12"><path
         id="path14"
         style="fill:#231f20;fill-opacity:1;fill-rule:nonzero;stroke:none"
         d="m 3461.61,915.879 v 627.111 h -148.93 v -264.01 h -281.25 v 264.01 H 2882.51 V 915.879 h 148.92 v 248.331 h 281.25 V 915.879 h 148.93" /><path
         id="path16"
         style="fill:#231f20;fill-opacity:1;fill-rule:nonzero;stroke:none"
         d="M 5143.04,1542.99 H 4608.26 V 1423.6 h 192 V 915.879 h 148.93 V 1423.6 h 193.85 v 119.39" /><path
         id="path18"
         style="fill:#a7a5a6;fill-opacity:1;fill-rule:nonzero;stroke:none"
         d="m 3897.04,1403.93 c 28.17,-17.49 50.64,-41.92 66.81,-72.62 16.08,-30.56 24.22,-64.58 24.22,-101.11 0,-37.18 -8.14,-71.51 -24.22,-102.06 -16.15,-30.67 -38.6,-55.24 -66.74,-73.02 -28.25,-17.87 -59.7,-26.94 -93.5,-26.94 -33.78,0 -65.38,9.06 -93.93,26.92 -28.4,17.74 -51.45,42.24 -68.5,72.83 -17.07,30.58 -25.74,64.99 -25.74,102.27 0,36.61 8.5,70.68 25.24,101.26 16.78,30.66 39.88,55.06 68.66,72.52 v 0 c 28.83,17.49 60.55,26.37 94.27,26.37 33.75,0 65.18,-8.9 93.43,-26.42 z m -269.12,107.34 c -51.41,-27.95 -92.38,-66.8 -121.76,-115.47 -29.37,-48.67 -44.26,-104.07 -44.26,-164.69 0,-61.28 14.9,-117.48 44.31,-167.06 29.38,-49.58 70.34,-89.03 121.74,-117.249 51.47,-28.289 109.95,-42.621 173.81,-42.621 63.82,0 122.29,14.48 173.78,43.039 51.44,28.562 92.42,68.031 121.8,117.321 29.38,49.27 44.29,105.31 44.29,166.57 0,60.62 -14.9,116.03 -44.26,164.69 -29.38,48.66 -70.34,87.51 -121.76,115.47 -51.5,27.97 -110,42.16 -173.85,42.16 -63.86,0 -122.35,-14.19 -173.84,-42.16" /><path
         id="path20"
         style="fill:#231f20;fill-opacity:1;fill-rule:nonzero;stroke:none"
         d="m 4592.99,1196.8 c -19.8,25.34 -43.82,44.37 -71.39,56.56 -28.63,12.64 -65.62,25.53 -109.95,38.3 -31.02,9.49 -53.58,16.96 -69.12,22.88 -16.5,6.26 -30.62,14.68 -41.95,25.04 -12.57,11.44 -18.94,25.89 -18.94,42.93 0,18.06 7.81,32.62 22.59,42.11 29.94,19.17 83.15,17.39 156.23,-6.78 v 0.01 c 36,-11.9 70.51,-27.11 102.78,-45.27 l 55.26,116.93 c -31.85,19.4 -68.8,35.28 -109.96,47.24 -44.43,12.91 -90.08,19.46 -135.67,19.46 -50.08,0 -94.59,-7.97 -132.32,-23.69 -37.11,-15.49 -66.09,-37.78 -86.13,-66.23 -19.92,-28.3 -30.03,-61.77 -30.03,-99.49 0,-16.23 1.68,-31.12 4.85,-44.73 0.95,-3.35 1.82,-6.72 2.66,-10.12 4.79,-15.62 11.85,-29.29 21.2,-40.86 19.5,-24.17 43.23,-42.46 70.52,-54.35 28.36,-12.38 64.87,-24.79 108.54,-36.92 29.59,-8.02 52.98,-15.08 69.46,-20.99 17.48,-6.27 32.28,-14.88 43.99,-25.57 12.89,-11.8 19.42,-26.7 19.42,-44.31 0,-21.4 -8.86,-37.9 -26.32,-49.04 -16.04,-10.24 -37.88,-15.42 -64.93,-15.42 -35.63,0 -76.82,9.57 -122.44,28.45 -33.12,13.71 -86.24,46.84 -125.36,75.48 -7.15,-22.34 -16.61,-43.71 -28.64,-63.88 -9.69,-16.25 -20.75,-31.32 -32.92,-45.4 44.26,-32.249 109.78,-71.109 150.68,-85.531 51.91,-18.308 104.68,-27.589 156.85,-27.589 47.14,0 90.5,7.539 128.85,22.41 37.7,14.601 67.74,36.609 89.29,65.429 21.35,28.571 32.17,63.661 32.17,104.321 0,40.58 -9.84,73.76 -29.27,98.62" /><path
         id="path22"
         style="fill:#231f20;fill-opacity:1;fill-rule:nonzero;stroke:none"
         d="m 2882.78,775.012 h 20.16 V 709.5 h 84 v 65.512 h 20.37 v -147 h -20.37 v 63.207 h -84 v -63.207 h -20.16 v 147" /><path
         id="path24"
         style="fill:#231f20;fill-opacity:1;fill-rule:nonzero;stroke:none"
         d="m 3076.34,717.68 c -5.67,-3.36 -10.08,-8.02 -13.23,-13.961 -3.15,-5.949 -4.73,-12.707 -4.73,-20.27 0,-7.699 1.58,-14.558 4.73,-20.57 3.15,-6.027 7.56,-10.688 13.23,-13.969 5.67,-3.289 12.14,-4.941 19.43,-4.941 7.14,0 13.54,1.652 19.21,4.941 5.67,3.281 10.08,7.942 13.23,13.969 3.15,6.012 4.73,12.871 4.73,20.57 0,7.563 -1.58,14.321 -4.73,20.27 -3.15,5.941 -7.56,10.601 -13.23,13.961 -5.67,3.359 -12.07,5.039 -19.21,5.039 -7.29,0 -13.76,-1.68 -19.43,-5.039 z m 48.93,14.91 c 8.61,-4.762 15.33,-11.371 20.16,-19.84 4.83,-8.48 7.24,-18.168 7.24,-29.078 0,-10.934 -2.41,-20.66 -7.24,-29.192 -4.83,-8.55 -11.55,-15.199 -20.16,-19.949 -8.61,-4.769 -18.45,-7.152 -29.5,-7.152 -11.2,0 -21.11,2.383 -29.72,7.152 -8.61,4.75 -15.33,11.36 -20.16,19.84 -4.83,8.469 -7.24,18.231 -7.24,29.301 0,10.91 2.41,20.598 7.24,29.078 4.83,8.469 11.55,15.078 20.16,19.84 8.61,4.762 18.52,7.14 29.72,7.14 11.05,0 20.89,-2.378 29.5,-7.14" /><path
         id="path26"
         style="fill:#231f20;fill-opacity:1;fill-rule:nonzero;stroke:none"
         d="m 3230.21,722.301 c -7.28,0 -13.76,-1.61 -19.42,-4.832 -5.68,-3.219 -10.12,-7.77 -13.34,-13.649 -3.23,-5.879 -4.83,-12.672 -4.83,-20.371 0,-7.699 1.57,-14.488 4.72,-20.371 3.15,-5.879 7.49,-10.469 13.03,-13.75 5.52,-3.289 11.86,-4.937 19,-4.937 7.14,0 13.57,1.187 19.32,3.57 5.74,2.379 10.5,5.809 14.27,10.301 l 11.14,-11.352 c -5.04,-6.301 -11.45,-11.121 -19.22,-14.48 -7.77,-3.36 -16.55,-5.051 -26.35,-5.051 -10.78,0 -20.37,2.383 -28.77,7.152 -8.4,4.75 -14.95,11.36 -19.64,19.84 -4.68,8.469 -7.03,18.16 -7.03,29.078 0,10.922 2.35,20.66 7.03,29.192 4.69,8.539 11.24,15.187 19.64,19.949 8.4,4.762 17.99,7.14 28.77,7.14 9.38,0 17.81,-1.429 25.3,-4.308 7.49,-2.871 13.75,-7.031 18.8,-12.492 l -10.71,-13.43 c -8.82,8.531 -19.39,12.801 -31.71,12.801" /><path
         id="path28"
         style="fill:#231f20;fill-opacity:1;fill-rule:nonzero;stroke:none"
         d="m 3393.92,728.289 c 7.41,-7.629 11.12,-18.168 11.12,-31.609 v -68.668 h -19.53 v 63.418 c 0,9.371 -2.61,16.699 -7.87,21.941 -5.25,5.258 -12.49,7.879 -21.74,7.879 -10.78,-0.141 -19.31,-3.781 -25.61,-10.91 -6.3,-7.149 -9.45,-16.391 -9.45,-27.731 v -54.597 h -19.54 v 155.82 h 19.54 V 715.16 c 7.42,16.102 21.56,24.289 42.42,24.57 13.02,0 23.24,-3.82 30.66,-11.441" /><path
         id="path30"
         style="fill:#231f20;fill-opacity:1;fill-rule:nonzero;stroke:none"
         d="m 3488.35,721.25 c -5.53,1.68 -10.82,2.52 -15.85,2.52 -5.88,0 -10.61,-1.079 -14.18,-3.25 -3.57,-2.18 -5.36,-5.5 -5.36,-9.981 0,-4.48 2,-7.867 5.99,-10.18 3.99,-2.308 10.04,-4.66 18.16,-7.039 7.7,-2.242 14,-4.48 18.9,-6.711 4.9,-2.25 9.06,-5.539 12.5,-9.879 3.43,-4.339 5.15,-10.082 5.15,-17.21 0,-10.508 -3.97,-18.489 -11.87,-23.95 -7.91,-5.461 -17.74,-8.191 -29.51,-8.191 -8.26,0 -16.27,1.34 -24.04,3.992 -7.77,2.66 -14.32,6.438 -19.63,11.34 l 7.34,14.289 c 4.62,-4.211 10.33,-7.57 17.12,-10.09 6.79,-2.519 13.4,-3.781 19.85,-3.781 6.43,0 11.62,1.191 15.53,3.57 3.92,2.379 5.88,6.02 5.88,10.922 0,5.039 -2.06,8.82 -6.19,11.34 -4.13,2.519 -10.39,5.039 -18.8,7.559 -7.42,2.101 -13.48,4.242 -18.16,6.402 -4.69,2.168 -8.68,5.367 -11.97,9.558 -3.29,4.2 -4.94,9.661 -4.94,16.379 0,10.36 3.78,18.129 11.34,23.313 7.57,5.18 17.01,7.777 28.35,7.777 6.73,0 13.34,-0.949 19.85,-2.847 6.51,-1.883 12.14,-4.442 16.91,-7.661 l -7.14,-14.902 c -4.63,2.789 -9.7,5.031 -15.23,6.711" /><path
         id="path32"
         style="fill:#231f20;fill-opacity:1;fill-rule:nonzero;stroke:none"
         d="m 3589.6,722.301 c -7.29,0 -13.76,-1.61 -19.43,-4.832 -5.67,-3.219 -10.12,-7.77 -13.34,-13.649 -3.22,-5.879 -4.82,-12.672 -4.82,-20.371 0,-7.699 1.57,-14.488 4.71,-20.371 3.16,-5.879 7.49,-10.469 13.03,-13.75 5.53,-3.289 11.87,-4.937 19.01,-4.937 7.13,0 13.57,1.187 19.31,3.57 5.74,2.379 10.5,5.809 14.28,10.301 l 11.13,-11.352 c -5.04,-6.301 -11.44,-11.121 -19.22,-14.48 -7.76,-3.36 -16.55,-5.051 -26.34,-5.051 -10.79,0 -20.38,2.383 -28.77,7.152 -8.4,4.75 -14.96,11.36 -19.64,19.84 -4.69,8.469 -7.03,18.16 -7.03,29.078 0,10.922 2.34,20.66 7.03,29.192 4.68,8.539 11.24,15.187 19.64,19.949 8.39,4.762 17.98,7.14 28.77,7.14 9.37,0 17.81,-1.429 25.3,-4.308 7.49,-2.871 13.75,-7.031 18.8,-12.492 L 3621.3,709.5 c -8.81,8.531 -19.39,12.801 -31.7,12.801" /><path
         id="path34"
         style="fill:#231f20;fill-opacity:1;fill-rule:nonzero;stroke:none"
         d="m 3753.32,728.289 c 7.41,-7.629 11.12,-18.168 11.12,-31.609 v -68.668 h -19.53 v 63.418 c 0,9.371 -2.62,16.699 -7.87,21.941 -5.26,5.258 -12.49,7.879 -21.74,7.879 -10.78,-0.141 -19.32,-3.781 -25.62,-10.91 -6.3,-7.149 -9.45,-16.391 -9.45,-27.731 v -54.597 h -19.53 v 155.82 h 19.53 V 715.16 c 7.42,16.102 21.56,24.289 42.42,24.57 13.02,0 23.24,-3.82 30.67,-11.441" /><path
         id="path36"
         style="fill:#231f20;fill-opacity:1;fill-rule:nonzero;stroke:none"
         d="M 3899.12,739.109 V 628.012 h -19.75 v 23.519 c -7.27,-15.82 -21,-23.871 -41.15,-24.152 -12.89,0 -22.97,3.82 -30.25,11.441 -7.28,7.641 -10.91,18.18 -10.91,31.61 v 68.679 h 19.73 V 675.68 c 0,-9.379 2.56,-16.692 7.67,-21.95 5.11,-5.242 12.15,-7.871 21.1,-7.871 10.36,0.141 18.59,3.813 24.68,11.032 6.09,7.211 9.13,16.41 9.13,27.621 v 54.597 h 19.75" /><path
         id="path38"
         style="fill:#231f20;fill-opacity:1;fill-rule:nonzero;stroke:none"
         d="m 3936.75,783.832 h 19.53 v -155.82 h -19.53 v 155.82" /><path
         id="path40"
         style="fill:#231f20;fill-opacity:1;fill-rule:nonzero;stroke:none"
         d="m 4076.07,691.012 c -0.57,10.078 -3.93,18.027 -10.08,23.84 -6.16,5.808 -14.29,8.707 -24.36,8.707 -9.8,0 -17.95,-2.938 -24.47,-8.821 -6.51,-5.879 -10.39,-13.789 -11.65,-23.726 z m 4.4,33.5 c 8.83,-10.153 13.24,-24.262 13.24,-42.321 0,-2.8 -0.07,-4.902 -0.21,-6.3 h -87.78 c 1.54,-9.942 5.7,-17.852 12.5,-23.731 6.79,-5.879 15.14,-8.82 25.09,-8.82 6.58,0 12.7,1.191 18.38,3.57 5.66,2.379 10.6,5.738 14.8,10.09 l 10.71,-11.141 c -5.47,-5.879 -12.05,-10.429 -19.74,-13.648 -7.7,-3.223 -16.24,-4.832 -25.62,-4.832 -10.92,0 -20.61,2.34 -29.09,7.043 -8.47,4.687 -15.05,11.297 -19.74,19.84 -4.68,8.539 -7.03,18.269 -7.03,29.187 0,10.922 2.35,20.621 7.03,29.082 4.69,8.481 11.24,15.129 19.64,19.949 8.4,4.84 17.99,7.25 28.77,7.25 17.22,0 30.24,-5.082 39.05,-15.218" /><path
         id="path42"
         style="fill:#231f20;fill-opacity:1;fill-rule:nonzero;stroke:none"
         d="m 4251.11,754.121 c -7.35,2.16 -14.11,3.25 -20.26,3.25 -8.55,0 -15.38,-1.641 -20.48,-4.93 -5.11,-3.3 -7.67,-7.812 -7.67,-13.55 0,-5.172 1.54,-9.411 4.62,-12.7 3.08,-3.3 6.87,-5.882 11.35,-7.781 4.47,-1.879 10.7,-4.09 18.68,-6.609 9.94,-3.082 17.99,-6.012 24.15,-8.821 6.16,-2.8 11.42,-6.96 15.75,-12.5 4.34,-5.519 6.52,-12.839 6.52,-21.941 0,-8.398 -2.28,-15.75 -6.83,-22.051 -4.55,-6.297 -10.92,-11.16 -19.11,-14.59 -8.2,-3.437 -17.61,-5.148 -28.24,-5.148 -10.79,0 -21.29,2.102 -31.51,6.301 -10.22,4.199 -19.04,9.801 -26.45,16.801 l 9.02,17.429 c 7,-6.859 14.87,-12.152 23.62,-15.851 8.75,-3.711 17.26,-5.571 25.52,-5.571 9.81,0 17.54,1.93 23.2,5.782 5.68,3.839 8.51,9.058 8.51,15.64 0,5.18 -1.54,9.449 -4.62,12.809 -3.08,3.359 -6.96,6.019 -11.65,7.98 -4.7,1.961 -11.03,4.129 -19,6.512 -9.81,2.938 -17.79,5.809 -23.95,8.609 -6.16,2.797 -11.38,6.93 -15.64,12.387 -4.27,5.461 -6.41,12.672 -6.41,21.633 0,7.84 2.17,14.769 6.51,20.789 4.34,6.02 10.43,10.641 18.28,13.859 7.83,3.223 16.93,4.832 27.29,4.832 8.82,0 17.46,-1.3 25.94,-3.882 8.46,-2.59 15.99,-6.059 22.58,-10.387 l -8.4,-18.07 c -6.87,4.339 -13.97,7.597 -21.32,9.769" /><path
         id="path44"
         style="fill:#231f20;fill-opacity:1;fill-rule:nonzero;stroke:none"
         d="m 4371.96,635.371 c -8.55,-5.461 -17.22,-8.199 -26.04,-8.199 -8.82,0 -15.96,2.629 -21.42,7.867 -5.46,5.262 -8.2,13.199 -8.2,23.84 v 61.531 h -15.74 v 14.918 h 15.74 v 29.813 h 19.75 v -29.813 h 34.01 V 720.41 h -34.01 v -57.949 c 0,-6.172 1.11,-10.582 3.36,-13.242 2.24,-2.66 5.6,-3.989 10.08,-3.989 5.32,0 11.05,1.75 17.21,5.25 l 5.26,-15.109" /><path
         id="path46"
         style="fill:#231f20;fill-opacity:1;fill-rule:nonzero;stroke:none"
         d="m 4431.16,733.32 c 6.72,4.141 14.7,6.27 23.93,6.41 v -18.898 c -11.33,0.418 -20.5,-2.523 -27.51,-8.812 -7,-6.309 -10.98,-14.782 -11.96,-25.411 v -58.597 h -19.53 v 111.097 h 19.53 V 715.16 c 3.63,7.981 8.82,14.031 15.54,18.16" /><path
         id="path48"
         style="fill:#231f20;fill-opacity:1;fill-rule:nonzero;stroke:none"
         d="m 4535.65,649.961 c 6.37,4.41 10.19,10.25 11.45,17.527 v 11.133 h -32.55 c -8.82,0 -15.36,-1.332 -19.64,-3.992 -4.27,-2.66 -6.4,-6.859 -6.4,-12.59 0,-5.75 2.17,-10.301 6.51,-13.66 4.33,-3.359 10.14,-5.039 17.43,-5.039 9.1,0 16.83,2.211 23.2,6.621 z m 11.66,-21.949 v 15.539 c -8.26,-10.922 -21.21,-16.379 -38.86,-16.379 -7.69,0 -14.45,1.476 -20.26,4.418 -5.81,2.941 -10.28,6.988 -13.44,12.172 -3.15,5.179 -4.72,10.988 -4.72,17.437 0,9.93 3.68,17.813 11.02,23.621 7.35,5.809 17.61,8.782 30.76,8.918 h 35.29 v 5.25 c 0,7.84 -2.42,13.903 -7.25,18.16 -4.82,4.282 -11.87,6.411 -21.1,6.411 -11.21,0 -22.61,-3.989 -34.23,-11.957 l -8.2,13.429 c 7.98,5.18 15.37,8.93 22.16,11.231 6.79,2.316 14.88,3.468 24.26,3.468 13.86,0 24.57,-3.398 32.13,-10.179 7.56,-6.789 11.41,-16.27 11.55,-28.461 l 0.21,-73.078 h -19.32" /><path
         id="path50"
         style="fill:#231f20;fill-opacity:1;fill-rule:nonzero;stroke:none"
         d="m 4602.53,783.832 h 19.54 v -155.82 h -19.54 v 155.82" /><path
         id="path52"
         style="fill:#231f20;fill-opacity:1;fill-rule:nonzero;stroke:none"
         d="m 4708.33,721.25 c -5.53,1.68 -10.81,2.52 -15.85,2.52 -5.88,0 -10.61,-1.079 -14.18,-3.25 -3.57,-2.18 -5.36,-5.5 -5.36,-9.981 0,-4.48 2,-7.867 5.99,-10.18 3.99,-2.308 10.04,-4.66 18.17,-7.039 7.69,-2.242 13.99,-4.48 18.89,-6.711 4.9,-2.25 9.06,-5.539 12.5,-9.879 3.43,-4.339 5.15,-10.082 5.15,-17.21 0,-10.508 -3.97,-18.489 -11.87,-23.95 -7.91,-5.461 -17.74,-8.191 -29.51,-8.191 -8.26,0 -16.27,1.34 -24.04,3.992 -7.77,2.66 -14.32,6.438 -19.63,11.34 l 7.34,14.289 c 4.62,-4.211 10.33,-7.57 17.12,-10.09 6.79,-2.519 13.4,-3.781 19.85,-3.781 6.43,0 11.62,1.191 15.53,3.57 3.92,2.379 5.88,6.02 5.88,10.922 0,5.039 -2.06,8.82 -6.19,11.34 -4.13,2.519 -10.39,5.039 -18.8,7.559 -7.42,2.101 -13.47,4.242 -18.16,6.402 -4.69,2.168 -8.68,5.367 -11.97,9.558 -3.29,4.2 -4.94,9.661 -4.94,16.379 0,10.36 3.78,18.129 11.34,23.313 7.57,5.18 17.01,7.777 28.35,7.777 6.73,0 13.34,-0.949 19.85,-2.847 6.51,-1.883 12.14,-4.442 16.91,-7.661 l -7.14,-14.902 c -4.63,2.789 -9.7,5.031 -15.23,6.711" /><path
         id="path54"
         style="fill:#231f20;fill-opacity:1;fill-rule:nonzero;stroke:none"
         d="M 4860.45,739.109 V 628.012 h -19.74 v 23.519 c -7.28,-15.82 -21,-23.871 -41.15,-24.152 -12.89,0 -22.97,3.82 -30.25,11.441 -7.28,7.641 -10.92,18.18 -10.92,31.61 v 68.679 h 19.74 V 675.68 c 0,-9.379 2.56,-16.692 7.67,-21.95 5.1,-5.242 12.14,-7.871 21.1,-7.871 10.36,0.141 18.58,3.813 24.68,11.032 6.09,7.211 9.13,16.41 9.13,27.621 v 54.597 h 19.74" /><path
         id="path56"
         style="fill:#231f20;fill-opacity:1;fill-rule:nonzero;stroke:none"
         d="m 4990.04,728.289 c 7.42,-7.629 11.13,-18.168 11.13,-31.609 v -68.668 h -19.53 v 63.418 c 0,9.371 -2.62,16.699 -7.87,21.941 -5.26,5.258 -12.49,7.879 -21.74,7.879 -9.94,-0.141 -18.03,-3.328 -24.25,-9.559 -6.23,-6.23 -9.77,-14.312 -10.61,-24.242 v -59.437 h -19.53 v 111.097 h 19.53 v -23.531 c 7.42,15.82 21.49,23.871 42.21,24.152 13.02,0 23.24,-3.82 30.66,-11.441" /><path
         id="path58"
         style="fill:#231f20;fill-opacity:1;fill-rule:nonzero;stroke:none"
         d="m 5104.84,648.801 c 5.67,3.359 10.12,8.051 13.34,14.078 3.21,6.012 4.82,12.801 4.82,20.371 0,7.691 -1.61,14.551 -4.82,20.57 -3.22,6.02 -7.67,10.719 -13.34,14.071 -5.66,3.359 -12.15,5.039 -19.42,5.039 -7.28,0 -13.75,-1.711 -19.43,-5.141 -5.66,-3.43 -10.12,-8.16 -13.33,-14.18 -3.22,-6.019 -4.83,-12.808 -4.83,-20.359 0,-7.57 1.61,-14.359 4.83,-20.371 3.21,-6.027 7.67,-10.719 13.33,-14.078 5.68,-3.36 12.15,-5.039 19.43,-5.039 7.27,0 13.76,1.679 19.42,5.039 z m 37.69,135.031 V 628.012 H 5123 v 22.047 c -4.2,-7.418 -9.83,-13.118 -16.9,-17.118 -7.07,-3.98 -15.29,-5.98 -24.67,-5.98 -10.51,0 -19.77,2.418 -27.83,7.238 -8.05,4.84 -14.32,11.563 -18.79,20.172 -4.48,8.598 -6.72,18.438 -6.72,29.5 0,10.918 2.24,20.617 6.72,29.078 4.47,8.481 10.74,15.09 18.79,19.852 8.06,4.758 17.26,7.148 27.62,7.148 9.52,0 17.85,-1.969 24.99,-5.879 7.14,-3.929 12.73,-9.601 16.79,-17.019 v 66.781 h 19.53" /><path
         id="path60"
         style="fill:#e82235;fill-opacity:1;fill-rule:nonzero;stroke:none"
         d="M 2305.07,974.68 C 2197.42,868.531 2074.11,808.34 1928.69,768.039 c 73.3,232.471 36.53,462.161 -126.3,646.891 175.72,-46.97 323.8,-107.39 439.81,-183.41 50.17,-75.71 66.1,-163.02 62.87,-256.84 z m -422.59,0 C 1774.82,868.531 1651.51,808.34 1506.1,768.039 c 73.29,232.471 36.52,462.161 -126.31,646.891 175.72,-46.97 323.8,-107.39 439.82,-183.41 50.16,-75.71 66.09,-163.02 62.87,-256.84 z m -413.6,0 C 1361.22,868.531 1237.91,808.34 1092.5,768.039 c 73.3,232.471 36.52,462.161 -126.305,646.891 175.715,-46.97 323.805,-107.39 439.815,-183.41 50.17,-75.71 66.09,-163.02 62.87,-256.84 z M 634.051,1542.99 V 628.012 H 2588.81 V 1542.99 H 634.051" /></g></g></svg>